<?xml version="1.0" encoding="UTF-8" standalone="yes"?>
<!DOCTYPE svg PUBLIC "-//W3C//DTD SVG 1.1//EN" "http://www.w3.org/Graphics/SVG/1.1/DTD/svg11.dtd">

<svg width="46" height="30" viewBox="0 0 46 30" xmlns="http://www.w3.org/2000/svg" xmlns:xlink="http://www.w3.org/1999/xlink" version="1.1" baseProfile="full">
    <g transform="scale(1,-1) translate(0,-30)">
        <path d="M 6.661111 1.664181 L 6.661111 16.913742 Q 6.661111 18.597743 5.807947 19.486521 Q 4.954783 20.375299 3.314083 20.375299 L 1.017103 20.375299 L 1.017103 24.335819 L 3.314083 24.335819 Q 6.923623 24.335819 8.859648 22.386745 Q 10.795674 20.437670 10.795674 16.913742 L 10.795674 1.664181 Z M 26.612020 1.383514 Q 23.986901 1.383514 21.722735 2.303477 Q 19.458569 3.223440 17.801462 4.829478 Q 16.144355 6.435516 15.192750 8.587295 Q 14.241144 10.739073 14.241144 13.233889 Q 14.241144 15.728705 15.192750 17.818113 Q 16.144355 19.907521 17.801462 21.420003 Q 19.458569 22.932486 21.722735 23.774486 Q 23.986901 24.616486 26.612020 24.616486 Q 29.204326 24.616486 31.468492 23.774486 Q 33.732657 22.932486 35.406171 21.420003 Q 37.079685 19.907521 38.031291 17.818113 Q 38.982897 15.728705 38.982897 13.233889 Q 38.982897 10.739073 38.031291 8.587295 Q 37.079685 6.435516 35.406171 4.829478 Q 33.732657 3.223440 31.468492 2.303477 Q 29.204326 1.383514 26.612020 1.383514 Z M 34.782705 13.046778 Q 34.782705 14.668408 34.241274 16.071742 Q 33.699843 17.475076 32.649795 18.473002 Q 31.599748 19.470929 30.073897 20.047855 Q 28.548046 20.624781 26.612020 20.624781 Q 24.643180 20.624781 23.117330 20.047855 Q 21.591479 19.470929 20.541431 18.473002 Q 19.491383 17.475076 18.949952 16.071742 Q 18.408521 14.668408 18.408521 13.046778 Q 18.408521 11.393962 18.949952 9.990628 Q 19.491383 8.587295 20.541431 7.558183 Q 21.591479 6.529071 23.100923 5.936553 Q 24.610366 5.344034 26.579206 5.344034 Q 28.548046 5.344034 30.073897 5.936553 Q 31.599748 6.529071 32.649795 7.558183 Q 33.699843 8.587295 34.241274 9.990628 Q 34.782705 11.393962 34.782705 13.046778 Z" transform="scale(1.000000,1.000000) translate(7.000000,2.000000)" fill="#780a0f" opacity="1.000000"></path>
        <path d="M 5.618463 3.634000 Q 5.618463 3.178000 5.447463 2.791000 Q 5.276463 2.404000 4.979463 2.119000 Q 4.682463 1.834000 4.274463 1.675000 Q 3.866463 1.516000 3.392463 1.516000 Q 2.912463 1.516000 2.516463 1.675000 Q 2.120463 1.834000 1.841463 2.119000 Q 1.562463 2.404000 1.409463 2.791000 Q 1.256463 3.178000 1.256463 3.634000 L 1.256463 5.998000 L 2.018463 5.998000 L 2.018463 3.634000 Q 2.018463 3.340000 2.123463 3.091000 Q 2.228463 2.842000 2.414463 2.662000 Q 2.600463 2.482000 2.858463 2.380000 Q 3.116463 2.278000 3.428463 2.278000 Q 3.734463 2.278000 3.998463 2.380000 Q 4.262463 2.482000 4.451463 2.662000 Q 4.640463 2.842000 4.748463 3.091000 Q 4.856463 3.340000 4.856463 3.634000 L 4.856463 5.500000 L 3.722463 5.500000 L 3.722463 3.532000 L 3.080463 3.532000 L 3.080463 6.268000 L 5.618463 6.268000 Z M 5.618463 6.970000 L 1.256463 6.970000 L 1.256463 10.864000 L 2.018463 10.864000 L 2.018463 7.726000 L 4.856463 7.726000 L 4.856463 10.870000 L 5.618463 10.870000 Z M 3.722463 8.284000 L 3.080463 8.284000 L 3.080463 10.702000 L 3.722463 10.702000 Z M 5.618463 16.954000 L 2.552463 16.120000 L 5.390463 14.884000 Q 5.528463 14.818000 5.603463 14.725000 Q 5.678463 14.632000 5.678463 14.494000 Q 5.678463 14.224000 5.390463 14.104000 L 2.552463 12.874000 L 5.618463 12.040000 L 5.618463 11.290000 L 1.514463 12.412000 Q 1.202463 12.490000 1.202463 12.790000 Q 1.202463 12.910000 1.268463 13.015000 Q 1.334463 13.120000 1.460463 13.174000 L 4.544463 14.518000 L 1.460463 15.862000 Q 1.202463 15.970000 1.202463 16.228000 Q 1.202463 16.504000 1.514463 16.594000 L 5.618463 17.710000 Z M 5.618463 25.408000 L 2.552463 24.574000 L 5.390463 23.338000 Q 5.528463 23.272000 5.603463 23.179000 Q 5.678463 23.086000 5.678463 22.948000 Q 5.678463 22.678000 5.390463 22.558000 L 2.552463 21.328000 L 5.618463 20.494000 L 5.618463 19.744000 L 1.514463 20.866000 Q 1.202463 20.944000 1.202463 21.244000 Q 1.202463 21.364000 1.268463 21.469000 Q 1.334463 21.574000 1.460463 21.628000 L 4.544463 22.972000 L 1.460463 24.316000 Q 1.202463 24.424000 1.202463 24.682000 Q 1.202463 24.958000 1.514463 25.048000 L 5.618463 26.164000 Z M 5.618463 28.066000 L 2.018463 28.066000 L 2.018463 26.410000 L 1.256463 26.410000 L 1.256463 30.484000 L 2.018463 30.484000 L 2.018463 28.828000 L 5.618463 28.828000 Z" transform="scale(1.000000,1.000000) translate(-1.000000,-1.000000)" opacity="1.000000"></path>
    </g>
</svg>