<?xml version="1.0" encoding="UTF-8" standalone="yes"?>
<!DOCTYPE svg PUBLIC "-//W3C//DTD SVG 1.1//EN" "http://www.w3.org/Graphics/SVG/1.1/DTD/svg11.dtd">

<svg width="38" height="28" viewBox="0 0 38 28" xmlns="http://www.w3.org/2000/svg" xmlns:xlink="http://www.w3.org/1999/xlink" version="1.1" baseProfile="full">
    <g transform="scale(1,-1) translate(0,-28)">
        <path d="M 3.942510 1.664181 L 3.942510 5.624701 L 15.919619 5.624701 Q 18.610366 5.624701 20.251066 6.778553 Q 21.891766 7.932405 22.383976 10.583147 L 8.142702 10.583147 Q 4.894116 10.583147 3.072939 12.158000 Q 1.251763 13.732852 1.251763 17.256780 Q 1.251763 18.753669 1.727565 20.047855 Q 2.203368 21.342040 3.105753 22.293189 Q 4.008138 23.244337 5.287884 23.790078 Q 6.567630 24.335819 8.142702 24.335819 L 15.919619 24.335819 Q 18.413482 24.335819 20.431543 23.618560 Q 22.449604 22.901300 23.844199 21.466781 Q 25.238794 20.032262 25.993516 17.849298 Q 26.748237 15.666334 26.748237 12.766111 Q 26.748237 9.865888 25.993516 7.760887 Q 25.238794 5.655886 23.844199 4.299330 Q 22.449604 2.942774 20.431543 2.303477 Q 18.413482 1.664181 15.919619 1.664181 Z M 5.484768 17.038483 Q 5.484768 15.416853 6.370746 14.652815 Q 7.256724 13.888778 8.831796 13.888778 L 22.548046 13.888778 Q 22.318348 17.256780 20.644834 18.800447 Q 18.971320 20.344114 15.919619 20.344114 L 8.831796 20.344114 Q 7.256724 20.344114 6.370746 19.486521 Q 5.484768 18.628928 5.484768 17.038483 Z" transform="scale(1.000000,1.000000) translate(11.000000,1.000000)" fill="#780a0f" opacity="1.000000"></path>
        <path d="M 8.849259 10.107485 L 4.050651 8.802189 L 8.492416 6.867720 Q 8.708400 6.764424 8.825783 6.618869 Q 8.943166 6.473314 8.943166 6.257330 Q 8.943166 5.834752 8.492416 5.646939 L 4.050651 3.721862 L 8.849259 2.416565 L 8.849259 1.242737 L 2.426073 2.998784 Q 1.937761 3.120862 1.937761 3.590393 Q 1.937761 3.778205 2.041058 3.942541 Q 2.144354 4.106877 2.341558 4.191393 L 7.168338 6.294892 L 2.341558 8.398392 Q 1.937761 8.567423 1.937761 8.971220 Q 1.937761 9.403189 2.426073 9.544048 L 8.849259 11.290704 Z M 8.849259 12.145251 L 2.022276 12.145251 L 2.022276 13.337860 L 8.849259 13.337860 Z M 3.853448 15.694906 L 8.849259 15.694906 L 8.849259 14.558641 L 2.651448 14.558641 Q 2.322776 14.558641 2.130269 14.722977 Q 1.937761 14.887313 1.937761 15.169031 Q 1.937761 15.300500 1.994104 15.422578 Q 2.050448 15.544656 2.181917 15.676125 L 6.961744 20.493515 L 1.965933 20.493515 L 1.965933 21.629780 L 8.220088 21.629780 Q 8.558150 21.629780 8.745962 21.465444 Q 8.933775 21.301108 8.933775 21.038171 Q 8.933775 20.747061 8.680228 20.493515 Z M 8.849259 24.972842 L 3.214885 24.972842 L 3.214885 22.381030 L 2.022276 22.381030 L 2.022276 28.757263 L 3.214885 28.757263 L 3.214885 26.165451 L 8.849259 26.165451 Z" transform="scale(1.000000,1.000000) translate(-1.000000,-1.000000)" opacity="1.000000"></path>
    </g>
</svg>