<?xml version="1.0" encoding="UTF-8" standalone="yes"?>
<!DOCTYPE svg PUBLIC "-//W3C//DTD SVG 1.1//EN" "http://www.w3.org/Graphics/SVG/1.1/DTD/svg11.dtd">

<svg width="37" height="30" viewBox="0 0 37 30" xmlns="http://www.w3.org/2000/svg" xmlns:xlink="http://www.w3.org/1999/xlink" version="1.1" baseProfile="full">
    <g transform="scale(1,-1) translate(0,-30)">
        <path d="M 9.618505 1.664181 Q 7.879363 1.664181 6.451954 2.147551 Q 5.024545 2.630922 4.023718 3.535292 Q 3.022891 4.439663 2.481460 5.702664 Q 1.940030 6.965664 1.940030 8.524924 Q 1.940030 10.520777 2.990077 11.830555 Q 4.040125 13.140333 5.680825 13.639297 Q 4.335451 14.044704 3.367438 15.182964 Q 2.399426 16.321224 2.399426 18.473002 Q 2.399426 19.907521 2.940856 21.014596 Q 3.482287 22.121670 4.499521 22.854523 Q 5.516755 23.587375 6.927757 23.961597 Q 8.338759 24.335819 10.077901 24.335819 L 19.922099 24.335819 Q 21.661241 24.335819 23.088650 23.961597 Q 24.516059 23.587375 25.516886 22.854523 Q 26.517713 22.121670 27.075551 21.014596 Q 27.633388 19.907521 27.633388 18.473002 Q 27.633388 17.381520 27.370877 16.570705 Q 27.108365 15.759890 26.648969 15.182964 Q 26.189573 14.606038 25.582514 14.216223 Q 24.975455 13.826408 24.319175 13.639297 Q 25.959875 13.140333 27.009923 11.830555 Q 28.059970 10.520777 28.059970 8.524924 Q 28.059970 6.965664 27.518540 5.702664 Q 26.977109 4.439663 25.976282 3.535292 Q 24.975455 2.630922 23.548046 2.147551 Q 22.120637 1.664181 20.381495 1.664181 Z M 9.782575 11.518703 Q 8.010619 11.518703 7.075420 10.754666 Q 6.140221 9.990628 6.140221 8.587295 Q 6.140221 7.090405 7.403560 6.357553 Q 8.666899 5.624701 10.635739 5.624701 L 19.364261 5.624701 Q 21.333101 5.624701 22.596440 6.357553 Q 23.859779 7.090405 23.859779 8.587295 Q 23.859779 9.990628 22.924580 10.754666 Q 21.989381 11.518703 20.217425 11.518703 Z M 10.865436 20.406484 Q 8.798155 20.406484 7.698886 19.798373 Q 6.599617 19.190262 6.599617 17.599817 Q 6.599617 16.102927 7.452781 15.479223 Q 8.305945 14.855519 10.077901 14.855519 L 19.922099 14.855519 Q 21.694055 14.855519 22.547219 15.479223 Q 23.400383 16.102927 23.400383 17.599817 Q 23.400383 19.190262 22.301114 19.798373 Q 21.201845 20.406484 19.134564 20.406484 Z" transform="scale(1.000000,1.000000) translate(8.000000,2.000000)" fill="#780a0f" opacity="1.000000"></path>
        <path d="M 3.257463 2.721000 L 6.981463 2.721000 L 6.981463 1.874000 L 2.361463 1.874000 Q 2.116463 1.874000 1.972963 1.996500 Q 1.829463 2.119000 1.829463 2.329000 Q 1.829463 2.427000 1.871463 2.518000 Q 1.913463 2.609000 2.011463 2.707000 L 5.574463 6.298000 L 1.850463 6.298000 L 1.850463 7.145000 L 6.512463 7.145000 Q 6.764463 7.145000 6.904463 7.022500 Q 7.044463 6.900000 7.044463 6.704000 Q 7.044463 6.487000 6.855463 6.298000 Z M 6.981463 14.341000 L 3.404463 13.368000 L 6.715463 11.926000 Q 6.876463 11.849000 6.963963 11.740500 Q 7.051463 11.632000 7.051463 11.471000 Q 7.051463 11.156000 6.715463 11.016000 L 3.404463 9.581000 L 6.981463 8.608000 L 6.981463 7.733000 L 2.193463 9.042000 Q 1.829463 9.133000 1.829463 9.483000 Q 1.829463 9.623000 1.906463 9.745500 Q 1.983463 9.868000 2.130463 9.931000 L 5.728463 11.499000 L 2.130463 13.067000 Q 1.829463 13.193000 1.829463 13.494000 Q 1.829463 13.816000 2.193463 13.921000 L 6.981463 15.223000 Z M 6.981463 24.204000 L 3.404463 23.231000 L 6.715463 21.789000 Q 6.876463 21.712000 6.963963 21.603500 Q 7.051463 21.495000 7.051463 21.334000 Q 7.051463 21.019000 6.715463 20.879000 L 3.404463 19.444000 L 6.981463 18.471000 L 6.981463 17.596000 L 2.193463 18.905000 Q 1.829463 18.996000 1.829463 19.346000 Q 1.829463 19.486000 1.906463 19.608500 Q 1.983463 19.731000 2.130463 19.794000 L 5.728463 21.362000 L 2.130463 22.930000 Q 1.829463 23.056000 1.829463 23.357000 Q 1.829463 23.679000 2.193463 23.784000 L 6.981463 25.086000 Z M 6.981463 27.305000 L 2.781463 27.305000 L 2.781463 25.373000 L 1.892463 25.373000 L 1.892463 30.126000 L 2.781463 30.126000 L 2.781463 28.194000 L 6.981463 28.194000 Z" transform="scale(1.000000,1.000000) translate(-1.000000,-1.000000)" opacity="1.000000"></path>
    </g>
</svg>